<svg width="380" height="98" viewBox="0 0 380 98" fill="none" xmlns="http://www.w3.org/2000/svg">
<path d="M111.34 16.5601H132.42C144.99 16.5601 151.48 22.0001 151.48 31.7301C151.48 38.1301 149.13 42.1901 143.78 44.8601C150.91 47.0501 154.32 51.5901 154.32 59.0601C154.4 61.7532 153.907 64.4326 152.872 66.9205C151.838 69.4084 150.286 71.6477 148.32 73.4901C143.78 77.5401 138.18 78.11 130.07 78.11H111.34V16.5601ZM129.51 40.4901C135.1 40.4901 137.78 39.2701 137.78 35.3001C137.78 31.3301 135.51 29.4601 130.88 29.4601H125.94V40.4601L129.51 40.4901ZM131 65.3C136.76 65.3 139.44 63.9201 139.44 58.8901C139.44 53.7001 136.76 52.3201 130.76 52.3201H125.9V65.3201L131 65.3Z" fill="white"/>
<path d="M193.41 72.9999C189.35 76.9999 185.13 78.4399 179.62 78.4399C174.235 78.5376 169.012 76.5941 165 72.9999C162.504 70.7747 160.495 68.0573 159.1 65.0185C157.705 61.9798 156.953 58.6853 156.892 55.342C156.831 51.9988 157.462 48.679 158.745 45.5914C160.029 42.5037 161.937 39.7148 164.35 37.3999C166.38 35.3613 168.795 33.7458 171.454 32.6472C174.112 31.5486 176.963 30.9887 179.84 30.9999C185.44 30.9999 189.84 32.9399 192.9 36.9199V36.9999L206.6 39.2699V78.2699H193.41V72.9999ZM182.7 65.9999C184.157 65.9831 185.595 65.6772 186.933 65.1C188.27 64.5227 189.48 63.6855 190.491 62.637C191.502 61.5886 192.295 60.3497 192.824 58.9924C193.352 57.635 193.606 56.1861 193.57 54.7299C193.62 53.2105 193.363 51.6966 192.814 50.2787C192.266 48.8608 191.437 47.5681 190.377 46.4779C189.318 45.3876 188.049 44.5221 186.648 43.9331C185.246 43.3441 183.74 43.0437 182.22 43.0499C180.704 43.0486 179.203 43.3467 177.803 43.927C176.403 44.5073 175.131 45.3585 174.061 46.4317C172.99 47.5049 172.142 48.7789 171.566 50.1806C170.989 51.5824 170.695 53.0842 170.7 54.5999C170.62 61.0799 175.65 65.9999 182.7 65.9999Z" fill="white"/>
<path d="M212.3 78.1899V18.4299L225.3 16.1599L225.13 37.8099C227.97 33.1099 232.35 30.6699 238.51 30.6699C248.16 30.6699 254.41 36.7599 254.41 47.3799V77.9999H240.68V52.9999C240.68 46.5199 239.3 43.5999 234.03 43.5999C228.76 43.5999 225.76 46.8399 225.76 52.9999V78.2199L212.3 78.1899Z" fill="white"/>
<path d="M260.47 78.1899V31.6499H274.09V78.1899H260.47Z" fill="white"/>
<path d="M300.29 78.44C287.8 78.44 278.39 68.22 278.39 54.68C278.353 51.4551 278.966 48.2557 280.192 45.273C281.419 42.2903 283.235 39.5855 285.53 37.32C287.448 35.2912 289.762 33.6767 292.328 32.576C294.894 31.4753 297.658 30.9117 300.45 30.92C302.864 30.8232 305.266 31.3109 307.451 32.3416C309.636 33.3723 311.54 34.9155 313 36.84V36.92L326.13 39.19V73.49C326.13 79.65 326.13 84.6 322.48 89.38C318.11 95.14 311.48 97.98 302.78 97.98C290.45 97.98 282.02 91.74 280.24 81.98H295.56C296.45 84.9 299.21 86.77 303.27 86.77C309.35 86.77 313 82.88 313 75.77C313.013 74.9858 312.987 74.2015 312.92 73.42C309 76.81 305.15 78.44 300.29 78.44ZM302.64 66.19C308.72 66.19 313.5 61.24 313.5 54.76C313.5 48.03 308.56 43.16 303.04 43.16C300.099 43.2745 297.314 44.5103 295.255 46.6136C293.197 48.7169 292.021 51.5284 291.97 54.471C291.919 57.4136 292.996 60.2642 294.98 62.4378C296.964 64.6115 299.705 65.9433 302.64 66.16V66.19Z" fill="white"/>
<path d="M337.51 37.7299C339.753 35.44 342.426 33.6162 345.376 32.3633C348.326 31.1105 351.495 30.4534 354.7 30.4299C361.123 30.3354 367.329 32.7498 372 37.1599C374.381 39.4024 376.284 42.1036 377.593 45.1008C378.903 48.098 379.592 51.3292 379.62 54.5999C379.716 57.8426 379.145 61.0705 377.941 64.0828C376.736 67.0951 374.925 69.8274 372.62 72.1099C370.331 74.4737 367.58 76.3416 364.539 77.5974C361.497 78.8532 358.23 79.4702 354.94 79.4099C351.643 79.5011 348.365 78.8821 345.328 77.595C342.292 76.3078 339.567 74.3826 337.34 71.9499C335.13 69.673 333.392 66.9827 332.223 64.0331C331.055 61.0834 330.479 57.9322 330.53 54.7599C330.508 51.6005 331.114 48.4683 332.312 45.5448C333.51 42.6214 335.277 39.965 337.51 37.7299ZM354.94 66.3499C357.231 66.4458 359.498 65.8536 361.449 64.6496C363.4 63.4456 364.946 61.6849 365.887 59.5945C366.829 57.5041 367.123 55.1796 366.731 52.9206C366.34 50.6615 365.281 48.5714 363.692 46.9195C362.102 45.2675 360.054 44.1294 357.811 43.6518C355.569 43.1742 353.235 43.379 351.11 44.2397C348.985 45.1004 347.166 46.5777 345.889 48.4812C344.611 50.3847 343.932 52.6273 343.94 54.9199C344 61.2399 349 66.3499 354.94 66.3499Z" fill="white"/>
<path d="M267.28 25.7199C271.085 25.7199 274.17 22.6352 274.17 18.8299C274.17 15.0247 271.085 11.9399 267.28 11.9399C263.475 11.9399 260.39 15.0247 260.39 18.8299C260.39 22.6352 263.475 25.7199 267.28 25.7199Z" fill="white"/>
<path d="M69.09 45.5901C72.2663 41.351 74.1985 36.3107 74.6696 31.0346C75.1407 25.7586 74.1321 20.4556 71.7569 15.7209C69.3818 10.9862 65.7341 7.0071 61.2233 4.23019C56.7125 1.45327 51.517 -0.0115579 46.22 6.86758e-05H0.409973V91.3101H46.3C53.8677 91.3021 61.1234 88.293 66.4756 82.9427C71.8277 77.5924 74.8394 70.3378 74.85 62.7701C74.8759 56.5651 72.851 50.5254 69.09 45.5901ZM46.39 84.2801H7.45997V7.00007H46.3C51.9832 7.02911 57.4241 9.30509 61.4353 13.3312C65.4465 17.3574 67.7021 22.8068 67.71 28.4901C67.7406 33.1224 66.2277 37.6331 63.41 41.3101L62.93 41.9501L29 22.4801V68.5401L62.82 49.0801L63.38 49.8101C66.1975 53.514 67.7095 58.0464 67.68 62.7001C67.7093 68.3823 65.4849 73.8443 61.4942 77.8894C57.5035 81.9344 52.072 84.2325 46.39 84.2801ZM54.9 45.5101L36.09 56.3801V34.7301L54.9 45.5101Z" fill="white"/>
</svg>
